<?xml version="1.0"?>
<svg xmlns="http://www.w3.org/2000/svg" xmlns:xlink="http://www.w3.org/1999/xlink" version="1.1" id="Layer_1" x="0px" y="0px" width="100%" viewBox="0 0 1080 1080" enable-background="new 0 0 1080 1080" xml:space="preserve" style="background-color:transparent;">
<path fill="none" opacity="1.000000" stroke="none" d=" M740.000000,1081.000000   C493.361725,1081.000000 247.223480,1081.000000 1.042609,1081.000000   C1.042609,721.069946 1.042609,361.139893 1.042609,1.104923   C360.888489,1.104923 720.776978,1.104923 1080.832764,1.104923   C1080.832764,360.999939 1080.832764,720.999939 1080.832764,1081.000000   C967.472717,1081.000000 853.986389,1081.000000 740.000000,1081.000000  M793.353210,780.176880   C798.377563,781.920471 803.368286,783.769592 808.432800,785.387512   C822.390686,789.846558 836.180115,794.741394 851.383362,791.374939   C862.944641,788.814880 870.985657,780.047546 871.774963,768.235046   C872.749817,753.645203 869.582092,740.043152 862.460388,727.427002   C850.832458,706.828125 839.466125,686.049194 826.944153,665.999023   C819.011475,653.297302 816.098328,639.445190 814.790100,625.265137   C812.468811,600.104126 811.582764,574.814575 809.702942,549.608154   C807.378906,518.445740 804.650696,487.313507 802.104370,456.167633   C801.581299,449.769623 798.269470,447.297913 792.055725,448.871307   C790.134338,449.357819 788.189026,450.016449 786.465088,450.974823   C771.232178,459.442902 755.983521,467.886169 740.865479,476.556305   C726.433044,484.833252 712.249512,493.547241 697.755432,501.712067   C691.843079,505.042633 688.248169,508.887573 688.866699,516.238159   C690.216858,532.282349 691.085693,548.366821 692.175415,564.433167   C693.559875,584.844543 694.999390,605.252258 696.344116,625.666260   C696.671692,630.638550 694.821533,634.840576 689.822327,636.172180   C684.946045,637.470947 679.812073,637.987427 674.754822,638.387695   C657.868835,639.724487 640.981934,641.194275 624.065674,641.957336   C610.612854,642.564087 597.106628,641.916504 583.643005,642.377930   C573.176514,642.736633 562.750610,644.441406 552.286682,644.682129   C524.315063,645.325867 496.331970,645.460510 468.354919,645.891846   C459.614929,646.026611 458.065918,644.026245 460.357025,635.459961   C463.323425,624.368774 466.250275,613.262268 468.903687,602.093384   C471.805634,589.878296 472.794373,577.519409 470.810486,565.008545   C469.408813,556.169434 465.106323,551.592651 458.062317,552.247986   C454.785889,552.552856 451.335754,553.027771 448.378052,554.350525   C438.231293,558.888733 428.070374,563.468384 418.281555,568.716248   C404.641998,576.028442 391.171570,583.689209 377.915131,591.676025   C346.866608,610.382507 316.007568,629.403198 285.023499,648.217163   C279.518768,651.559631 277.342041,656.694580 276.309265,662.613586   C273.966431,676.040527 272.144135,689.580811 269.219025,702.878967   C263.359772,729.516174 250.995377,753.917969 242.094650,779.517212   C237.678391,792.218750 235.317398,805.226318 238.887970,818.720398   C241.618164,829.038513 247.964859,835.536499 258.250977,838.127258   C266.948334,840.317810 275.788666,840.367798 284.414032,838.158203   C301.871857,833.685974 318.663727,827.602051 334.483368,818.617798   C364.015503,801.845947 389.482025,780.524719 409.609558,753.165039   C424.205902,733.324097 437.472382,712.610413 446.684631,689.576538   C447.962860,686.380554 449.177582,683.065308 451.055145,680.223816   C454.209045,675.450806 456.876007,675.794006 458.967102,680.988647   C461.634094,687.613953 463.705994,694.512207 466.789429,700.930115   C475.856018,719.801331 485.300201,738.491089 494.586700,757.256775   C497.120819,762.377625 501.053558,765.108154 506.932831,764.834778   C514.250671,764.494507 521.572693,764.227234 528.895264,764.008972   C549.680603,763.389404 570.473083,762.966492 591.251709,762.176147   C616.519348,761.215149 641.782471,760.088989 667.034973,758.789856   C689.147461,757.652344 711.256042,756.359985 733.337341,754.740479   C740.111450,754.243652 746.103699,755.380615 752.042786,758.578613   C765.500122,765.824768 779.115112,772.778137 793.353210,780.176880  M809.106445,317.851776   C812.332092,306.566193 815.404785,295.233917 818.830566,284.009430   C821.696228,274.620270 824.375366,265.100098 828.231323,256.107117   C832.490356,246.173889 834.054138,236.023209 833.686218,225.439590   C833.148987,209.982666 822.789429,199.714310 807.400269,199.256760   C790.858948,198.764969 774.683105,202.057053 759.738281,208.276169   C739.404053,216.738022 719.830750,226.892242 702.912720,241.775024   C683.842041,258.551453 667.790161,277.858704 653.965088,298.809814   C642.531311,316.137054 633.659790,335.096161 626.820007,354.875458   C625.550720,358.545990 624.062683,362.741882 619.201294,363.931488   C617.459839,360.990021 615.515503,358.440826 614.326721,355.577881   C606.941345,337.791687 600.237244,319.702454 592.273865,302.183411   C586.935486,290.439209 579.935181,279.445526 573.579895,268.171631   C571.880432,265.157013 569.161194,264.021790 565.585510,264.248688   C557.608887,264.754822 549.611755,264.927246 541.625977,265.299591   C500.393036,267.221893 459.162262,269.189453 417.928345,271.089966   C394.641907,272.163239 371.353790,273.211121 348.060760,274.126190   C336.074249,274.597076 324.383026,272.677734 313.980042,266.563812   C294.622589,255.187271 274.449707,245.919250 252.381851,241.387192   C243.274017,239.516724 233.791718,237.823013 225.144470,243.089691   C211.884415,251.165863 202.934784,270.004913 206.941620,284.927521   C210.139572,296.837616 214.920502,308.605988 220.831497,319.437073   C229.417389,335.169495 239.482773,350.111603 249.228500,365.189545   C261.025726,383.441406 269.568909,402.491699 267.843567,425.023315   C267.211395,433.278992 267.776154,441.681000 268.412323,449.968842   C270.221802,473.543365 272.104095,497.117737 274.431976,520.645264   C276.185272,538.365234 278.513245,556.034119 280.902405,573.682800   C281.934906,581.309875 284.245361,582.801575 291.335602,580.276184   C297.878265,577.945801 304.246033,574.969666 310.397278,571.721924   C336.454559,557.964172 362.956360,544.969482 386.772980,527.321045   C391.683105,523.682556 393.972443,519.176636 393.749908,513.292664   C393.504791,506.810974 393.132904,500.331024 392.664520,493.861328   C391.247223,474.285767 389.461304,454.731506 388.397888,435.137543   C387.685974,422.020782 387.882324,408.850922 387.826477,395.704132   C387.801056,389.720154 389.736298,387.776245 395.745300,387.007812   C397.065125,386.839020 398.394745,386.681458 399.722839,386.651733   C421.698792,386.160278 443.697174,386.154449 465.647064,385.119110   C512.171814,382.924561 558.522644,387.656799 604.976929,388.042633   C614.847534,388.124573 618.318970,392.863220 616.609192,402.466705   C612.454834,425.801300 610.876648,449.320618 611.038574,473.015717   C611.113037,483.907715 619.373840,486.722382 627.173462,482.398682   C644.336365,472.884491 661.720215,463.769440 678.907593,454.298676   C694.631714,445.634247 710.192566,436.674225 725.869873,427.924103   C737.045471,421.686554 748.554626,416.003448 759.443481,409.306335   C772.143616,401.495239 783.060303,391.586914 791.339539,378.925385   C803.323975,360.597351 804.909790,339.307037 809.106445,317.851776  z"/>
<path fill="#6C2A82" opacity="1.000000" stroke="none" d=" M793.009644,780.013672   C779.115112,772.778137 765.500122,765.824768 752.042786,758.578613   C746.103699,755.380615 740.111450,754.243652 733.337341,754.740479   C711.256042,756.359985 689.147461,757.652344 667.034973,758.789856   C641.782471,760.088989 616.519348,761.215149 591.251709,762.176147   C570.473083,762.966492 549.680603,763.389404 528.895264,764.008972   C521.572693,764.227234 514.250671,764.494507 506.932831,764.834778   C501.053558,765.108154 497.120819,762.377625 494.586700,757.256775   C485.300201,738.491089 475.856018,719.801331 466.789429,700.930115   C463.705994,694.512207 461.634094,687.613953 458.967102,680.988647   C456.876007,675.794006 454.209045,675.450806 451.055145,680.223816   C449.177582,683.065308 447.962860,686.380554 446.684631,689.576538   C437.472382,712.610413 424.205902,733.324097 409.609558,753.165039   C389.482025,780.524719 364.015503,801.845947 334.483368,818.617798   C318.663727,827.602051 301.871857,833.685974 284.414032,838.158203   C275.788666,840.367798 266.948334,840.317810 258.250977,838.127258   C247.964859,835.536499 241.618164,829.038513 238.887970,818.720398   C235.317398,805.226318 237.678391,792.218750 242.094650,779.517212   C250.995377,753.917969 263.359772,729.516174 269.219025,702.878967   C272.144135,689.580811 273.966431,676.040527 276.309265,662.613586   C277.342041,656.694580 279.518768,651.559631 285.023499,648.217163   C316.007568,629.403198 346.866608,610.382507 377.915131,591.676025   C391.171570,583.689209 404.641998,576.028442 418.281555,568.716248   C428.070374,563.468384 438.231293,558.888733 448.378052,554.350525   C451.335754,553.027771 454.785889,552.552856 458.062317,552.247986   C465.106323,551.592651 469.408813,556.169434 470.810486,565.008545   C472.794373,577.519409 471.805634,589.878296 468.903687,602.093384   C466.250275,613.262268 463.323425,624.368774 460.357025,635.459961   C458.065918,644.026245 459.614929,646.026611 468.354919,645.891846   C496.331970,645.460510 524.315063,645.325867 552.286682,644.682129   C562.750610,644.441406 573.176514,642.736633 583.643005,642.377930   C597.106628,641.916504 610.612854,642.564087 624.065674,641.957336   C640.981934,641.194275 657.868835,639.724487 674.754822,638.387695   C679.812073,637.987427 684.946045,637.470947 689.822327,636.172180   C694.821533,634.840576 696.671692,630.638550 696.344116,625.666260   C694.999390,605.252258 693.559875,584.844543 692.175415,564.433167   C691.085693,548.366821 690.216858,532.282349 688.866699,516.238159   C688.248169,508.887573 691.843079,505.042633 697.755432,501.712067   C712.249512,493.547241 726.433044,484.833252 740.865479,476.556305   C755.983521,467.886169 771.232178,459.442902 786.465088,450.974823   C788.189026,450.016449 790.134338,449.357819 792.055725,448.871307   C798.269470,447.297913 801.581299,449.769623 802.104370,456.167633   C804.650696,487.313507 807.378906,518.445740 809.702942,549.608154   C811.582764,574.814575 812.468811,600.104126 814.790100,625.265137   C816.098328,639.445190 819.011475,653.297302 826.944153,665.999023   C839.466125,686.049194 850.832458,706.828125 862.460388,727.427002   C869.582092,740.043152 872.749817,753.645203 871.774963,768.235046   C870.985657,780.047546 862.944641,788.814880 851.383362,791.374939   C836.180115,794.741394 822.390686,789.846558 808.432800,785.387512   C803.368286,783.769592 798.377563,781.920471 793.009644,780.013672  z"/>
<path fill="#6C2A82" opacity="1.000000" stroke="none" d=" M809.041870,318.279175   C804.909790,339.307037 803.323975,360.597351 791.339539,378.925385   C783.060303,391.586914 772.143616,401.495239 759.443481,409.306335   C748.554626,416.003448 737.045471,421.686554 725.869873,427.924103   C710.192566,436.674225 694.631714,445.634247 678.907593,454.298676   C661.720215,463.769440 644.336365,472.884491 627.173462,482.398682   C619.373840,486.722382 611.113037,483.907715 611.038574,473.015717   C610.876648,449.320618 612.454834,425.801300 616.609192,402.466705   C618.318970,392.863220 614.847534,388.124573 604.976929,388.042633   C558.522644,387.656799 512.171814,382.924561 465.647064,385.119110   C443.697174,386.154449 421.698792,386.160278 399.722839,386.651733   C398.394745,386.681458 397.065125,386.839020 395.745300,387.007812   C389.736298,387.776245 387.801056,389.720154 387.826477,395.704132   C387.882324,408.850922 387.685974,422.020782 388.397888,435.137543   C389.461304,454.731506 391.247223,474.285767 392.664520,493.861328   C393.132904,500.331024 393.504791,506.810974 393.749908,513.292664   C393.972443,519.176636 391.683105,523.682556 386.772980,527.321045   C362.956360,544.969482 336.454559,557.964172 310.397278,571.721924   C304.246033,574.969666 297.878265,577.945801 291.335602,580.276184   C284.245361,582.801575 281.934906,581.309875 280.902405,573.682800   C278.513245,556.034119 276.185272,538.365234 274.431976,520.645264   C272.104095,497.117737 270.221802,473.543365 268.412323,449.968842   C267.776154,441.681000 267.211395,433.278992 267.843567,425.023315   C269.568909,402.491699 261.025726,383.441406 249.228500,365.189545   C239.482773,350.111603 229.417389,335.169495 220.831497,319.437073   C214.920502,308.605988 210.139572,296.837616 206.941620,284.927521   C202.934784,270.004913 211.884415,251.165863 225.144470,243.089691   C233.791718,237.823013 243.274017,239.516724 252.381851,241.387192   C274.449707,245.919250 294.622589,255.187271 313.980042,266.563812   C324.383026,272.677734 336.074249,274.597076 348.060760,274.126190   C371.353790,273.211121 394.641907,272.163239 417.928345,271.089966   C459.162262,269.189453 500.393036,267.221893 541.625977,265.299591   C549.611755,264.927246 557.608887,264.754822 565.585510,264.248688   C569.161194,264.021790 571.880432,265.157013 573.579895,268.171631   C579.935181,279.445526 586.935486,290.439209 592.273865,302.183411   C600.237244,319.702454 606.941345,337.791687 614.326721,355.577881   C615.515503,358.440826 617.459839,360.990021 619.201294,363.931488   C624.062683,362.741882 625.550720,358.545990 626.820007,354.875458   C633.659790,335.096161 642.531311,316.137054 653.965088,298.809814   C667.790161,277.858704 683.842041,258.551453 702.912720,241.775024   C719.830750,226.892242 739.404053,216.738022 759.738281,208.276169   C774.683105,202.057053 790.858948,198.764969 807.400269,199.256760   C822.789429,199.714310 833.148987,209.982666 833.686218,225.439590   C834.054138,236.023209 832.490356,246.173889 828.231323,256.107117   C824.375366,265.100098 821.696228,274.620270 818.830566,284.009430   C815.404785,295.233917 812.332092,306.566193 809.041870,318.279175  z"/>
</svg>
